<svg width="141" height="34" viewBox="0 0 141 34" fill="none" xmlns="http://www.w3.org/2000/svg">
<rect width="141" height="34" rx="17" fill="#0057FF"/>
<path opacity="0.12" d="M22 10.1234L22.7858 12.1663C22.9738 12.6551 23.0678 12.8995 23.214 13.1051C23.3436 13.2873 23.5027 13.4465 23.685 13.5761C23.8905 13.7223 24.135 13.8163 24.6238 14.0043L26.6667 14.79L24.6238 15.5758C24.135 15.7638 23.8905 15.8578 23.685 16.004C23.5027 16.1336 23.3436 16.2927 23.214 16.475C23.0678 16.6805 22.9738 16.925 22.7858 17.4138L22 19.4567L21.2143 17.4138C21.0263 16.925 20.9323 16.6805 20.7861 16.475C20.6565 16.2927 20.4974 16.1336 20.3151 16.004C20.1096 15.8578 19.8651 15.7638 19.3763 15.5758L17.3334 14.79L19.3763 14.0043C19.8651 13.8163 20.1096 13.7223 20.3151 13.5761C20.4974 13.4465 20.6565 13.2873 20.7861 13.1051C20.9323 12.8995 21.0263 12.6551 21.2143 12.1663L22 10.1234Z" fill="white"/>
<path d="M16.3333 18.1234L16.6341 18.7249C16.8111 19.0788 16.8996 19.2558 17.0178 19.4092C17.1227 19.5453 17.2447 19.6673 17.3808 19.7722C17.5342 19.8904 17.7112 19.979 18.0652 20.156L18.6667 20.4567L18.0652 20.7574C17.7112 20.9344 17.5342 21.023 17.3808 21.1412C17.2447 21.2461 17.1227 21.3681 17.0178 21.5042C16.8996 21.6576 16.8111 21.8346 16.6341 22.1886L16.3333 22.79L16.0326 22.1885C15.8556 21.8346 15.7671 21.6576 15.6489 21.5042C15.544 21.3681 15.422 21.2461 15.2859 21.1412C15.1325 21.023 14.9555 20.9344 14.6015 20.7574L14 20.4567L14.6015 20.156C14.9555 19.979 15.1325 19.8904 15.2859 19.7722C15.422 19.6673 15.544 19.5453 15.6489 19.4092C15.7671 19.2558 15.8556 19.0788 16.0326 18.7248L16.3333 18.1234Z" stroke="white" stroke-width="1.16667" stroke-linecap="square"/>
<path d="M21.6667 10.79L22.3598 12.5922C22.5478 13.081 22.6419 13.3254 22.788 13.531C22.9176 13.7132 23.0768 13.8724 23.259 14.002C23.4646 14.1482 23.709 14.2422 24.1978 14.4302L26 15.1233L24.1978 15.8165C23.709 16.0045 23.4646 16.0985 23.259 16.2447C23.0768 16.3743 22.9176 16.5335 22.788 16.7157C22.6419 16.9212 22.5478 17.1657 22.3598 17.6545L21.6667 19.4567L20.9736 17.6545C20.7856 17.1657 20.6915 16.9212 20.5454 16.7157C20.4158 16.5335 20.2566 16.3743 20.0744 16.2447C19.8688 16.0985 19.6244 16.0045 19.1356 15.8165L17.3334 15.1233L19.1356 14.4302C19.6244 14.2422 19.8688 14.1482 20.0744 14.002C20.2566 13.8724 20.4158 13.7132 20.5454 13.531C20.6915 13.3254 20.7856 13.081 20.9736 12.5922L21.6667 10.79Z" stroke="white" stroke-width="1.16667" stroke-linecap="square"/>
<path d="M36.5596 16.7213C36.5596 15.6928 36.7966 14.7702 37.2705 13.9535C37.7545 13.1367 38.4049 12.5015 39.2216 12.0477C40.0485 11.5839 40.9509 11.352 41.929 11.352C43.0483 11.352 44.0415 11.6293 44.9086 12.1838C45.7859 12.7283 46.4211 13.5048 46.8144 14.5131H44.7423C44.47 13.9585 44.0919 13.5451 43.6079 13.2728C43.1239 13.0006 42.5643 12.8645 41.929 12.8645C41.2333 12.8645 40.6131 13.0208 40.0686 13.3333C39.5241 13.6459 39.0956 14.0946 38.783 14.6795C38.4805 15.2643 38.3293 15.9449 38.3293 16.7213C38.3293 17.4978 38.4805 18.1784 38.783 18.7632C39.0956 19.3481 39.5241 19.8018 40.0686 20.1245C40.6131 20.4371 41.2333 20.5933 41.929 20.5933C42.5643 20.5933 43.1239 20.4572 43.6079 20.185C44.0919 19.9127 44.47 19.4993 44.7423 18.9447H46.8144C46.4211 19.9531 45.7859 20.7295 44.9086 21.274C44.0415 21.8185 43.0483 22.0907 41.929 22.0907C40.9408 22.0907 40.0384 21.8638 39.2216 21.4101C38.4049 20.9463 37.7545 20.306 37.2705 19.4892C36.7966 18.6725 36.5596 17.7498 36.5596 16.7213ZM52.7832 13.53C53.4185 13.53 53.9832 13.6661 54.4772 13.9383C54.9814 14.2106 55.3747 14.6139 55.657 15.1483C55.9494 15.6828 56.0956 16.3281 56.0956 17.0843V22H54.3865V17.3415C54.3865 16.5953 54.2 16.0256 53.8269 15.6323C53.4538 15.229 52.9446 15.0273 52.2992 15.0273C51.6539 15.0273 51.1397 15.229 50.7565 15.6323C50.3834 16.0256 50.1969 16.5953 50.1969 17.3415V22H48.4726V10.8075H50.1969V14.6341C50.4893 14.2812 50.8573 14.0089 51.301 13.8173C51.7547 13.6258 52.2488 13.53 52.7832 13.53ZM57.3603 17.7952C57.3603 16.9583 57.5317 16.2172 57.8745 15.5718C58.2274 14.9265 58.7013 14.4274 59.2963 14.0745C59.9013 13.7115 60.5668 13.53 61.2928 13.53C61.9482 13.53 62.5179 13.6611 63.0019 13.9232C63.496 14.1753 63.8892 14.4929 64.1816 14.8761V13.6661H65.921V22H64.1816V20.7597C63.8892 21.153 63.4909 21.4807 62.9868 21.7428C62.4826 22.005 61.9078 22.1361 61.2625 22.1361C60.5466 22.1361 59.8912 21.9546 59.2963 21.5916C58.7013 21.2185 58.2274 20.7043 57.8745 20.0488C57.5317 19.3833 57.3603 18.6321 57.3603 17.7952ZM64.1816 17.8255C64.1816 17.2507 64.0606 16.7516 63.8186 16.3281C63.5867 15.9046 63.2792 15.5819 62.896 15.3601C62.5128 15.1383 62.0994 15.0273 61.6558 15.0273C61.2121 15.0273 60.7987 15.1383 60.4155 15.3601C60.0323 15.5718 59.7198 15.8895 59.4778 16.313C59.2458 16.7264 59.1299 17.2205 59.1299 17.7952C59.1299 18.37 59.2458 18.8741 59.4778 19.3077C59.7198 19.7413 60.0323 20.0741 60.4155 20.306C60.8088 20.5278 61.2222 20.6387 61.6558 20.6387C62.0994 20.6387 62.5128 20.5278 62.896 20.306C63.2792 20.0841 63.5867 19.7615 63.8186 19.338C64.0606 18.9044 64.1816 18.4002 64.1816 17.8255ZM69.8374 15.0727V19.6858C69.8374 19.9984 69.9079 20.2253 70.0491 20.3665C70.2004 20.4976 70.4524 20.5631 70.8054 20.5631H71.8641V22H70.5029C69.7264 22 69.1315 21.8185 68.7181 21.4555C68.3047 21.0925 68.098 20.5026 68.098 19.6858V15.0727H67.1149V13.6661H68.098V11.594H69.8374V13.6661H71.8641V15.0727H69.8374ZM78.6739 15.0727V19.6858C78.6739 19.9984 78.7445 20.2253 78.8856 20.3665C79.0369 20.4976 79.289 20.5631 79.6419 20.5631H80.7006V22H79.3394C78.563 22 77.968 21.8185 77.5546 21.4555C77.1412 21.0925 76.9345 20.5026 76.9345 19.6858V15.0727H75.9514V13.6661H76.9345V11.594H78.6739V13.6661H80.7006V15.0727H78.6739ZM85.5447 22.1361C84.7582 22.1361 84.0473 21.9596 83.4121 21.6067C82.7768 21.2437 82.2777 20.7396 81.9147 20.0942C81.5517 19.4388 81.3702 18.6826 81.3702 17.8255C81.3702 16.9785 81.5567 16.2273 81.9298 15.5718C82.3029 14.9164 82.8121 14.4123 83.4574 14.0593C84.1028 13.7064 84.8237 13.53 85.6203 13.53C86.4169 13.53 87.1379 13.7064 87.7832 14.0593C88.4285 14.4123 88.9377 14.9164 89.3108 15.5718C89.6839 16.2273 89.8704 16.9785 89.8704 17.8255C89.8704 18.6725 89.6789 19.4237 89.2957 20.0791C88.9125 20.7345 88.3882 21.2437 87.7227 21.6067C87.0673 21.9596 86.3413 22.1361 85.5447 22.1361ZM85.5447 20.6387C85.9884 20.6387 86.4018 20.5328 86.7849 20.3211C87.1782 20.1093 87.4958 19.7917 87.7378 19.3682C87.9798 18.9447 88.1008 18.4305 88.1008 17.8255C88.1008 17.2205 87.9849 16.7113 87.7529 16.2978C87.521 15.8743 87.2135 15.5567 86.8303 15.345C86.4472 15.1332 86.0337 15.0273 85.5901 15.0273C85.1464 15.0273 84.733 15.1332 84.3498 15.345C83.9767 15.5567 83.6793 15.8743 83.4574 16.2978C83.2356 16.7113 83.1247 17.2205 83.1247 17.8255C83.1247 18.7229 83.3516 19.4186 83.8053 19.9127C84.2692 20.3967 84.8489 20.6387 85.5447 20.6387ZM101.121 19.8522H96.7199L95.9637 22H94.1638L97.9299 11.473H99.9264L103.693 22H101.878L101.121 19.8522ZM100.637 18.4456L98.9282 13.5602L97.2039 18.4456H100.637ZM105.847 12.562C105.535 12.562 105.273 12.4561 105.061 12.2443C104.849 12.0326 104.743 11.7704 104.743 11.4578C104.743 11.1453 104.849 10.8831 105.061 10.6713C105.273 10.4596 105.535 10.3537 105.847 10.3537C106.15 10.3537 106.407 10.4596 106.619 10.6713C106.83 10.8831 106.936 11.1453 106.936 11.4578C106.936 11.7704 106.83 12.0326 106.619 12.2443C106.407 12.4561 106.15 12.562 105.847 12.562ZM106.694 13.6661V22H104.97V13.6661H106.694ZM112.031 11.4881C113.151 11.4881 114.129 11.7049 114.966 12.1385C115.813 12.562 116.463 13.1771 116.917 13.9837C117.381 14.7803 117.613 15.713 117.613 16.7818C117.613 17.8507 117.381 18.7783 116.917 19.5648C116.463 20.3513 115.813 20.9563 114.966 21.3798C114.129 21.7933 113.151 22 112.031 22H108.598V11.4881H112.031ZM112.031 20.5933C113.262 20.5933 114.204 20.2606 114.86 19.5951C115.515 18.9296 115.843 17.9918 115.843 16.7818C115.843 15.5618 115.515 14.6089 114.86 13.9232C114.204 13.2376 113.262 12.8947 112.031 12.8947H110.322V20.5933H112.031ZM125.299 19.8522H120.897L120.141 22H118.341L122.107 11.473H124.104L127.87 22H126.055L125.299 19.8522ZM124.815 18.4456L123.106 13.5602L121.381 18.4456H124.815Z" fill="white"/>
</svg>
