<?xml version="1.0" encoding="utf-8"?>
<svg width="816" height="68" viewBox="0 0 816 68" fill="none" xmlns="http://www.w3.org/2000/svg">
  <g filter="url(#filter0_ddd_146_128)">
    <rect x="11" y="6" width="793.9" height="45.59" rx="22.795" fill="#F8F1F1" fill-opacity="0.5" shape-rendering="crispEdges"/>
    <rect x="11" y="6" width="793.9" height="45.59" rx="22.795" fill="url(#paint0_linear_146_128)" shape-rendering="crispEdges"/>
    <rect x="12" y="7" width="791.9" height="43.59" rx="21.795" stroke="white" stroke-width="2" shape-rendering="crispEdges"/>
    <rect x="17" y="12" width="77.52" height="33.59" rx="16.795" fill="white"/>
    <path opacity="0.12" d="M38.9999 22.1233L39.7857 24.1662C39.9737 24.6551 40.0677 24.8995 40.2139 25.1051C40.3435 25.2873 40.5026 25.4465 40.6849 25.576C40.8904 25.7222 41.1349 25.8162 41.6237 26.0042L43.6666 26.79L41.6237 27.5757C41.1349 27.7637 40.8904 27.8577 40.6849 28.0039C40.5026 28.1335 40.3435 28.2926 40.2139 28.4749C40.0677 28.6804 39.9737 28.9249 39.7857 29.4137L38.9999 31.4566L38.2142 29.4137C38.0262 28.9249 37.9322 28.6804 37.786 28.4749C37.6564 28.2926 37.4973 28.1335 37.315 28.0039C37.1095 27.8577 36.865 27.7637 36.3762 27.5757L34.3333 26.79L36.3762 26.0042C36.865 25.8162 37.1095 25.7222 37.315 25.576C37.4973 25.4465 37.6564 25.2873 37.786 25.1051C37.9322 24.8995 38.0262 24.6551 38.2142 24.1662L38.9999 22.1233Z" fill="black"/>
    <path d="M33.3333 30.1233L33.6341 30.7248C33.8111 31.0788 33.8996 31.2558 34.0178 31.4092C34.1227 31.5452 34.2447 31.6672 34.3808 31.7722C34.5342 31.8904 34.7112 31.9789 35.0652 32.1559L35.6667 32.4566L35.0652 32.7574C34.7112 32.9344 34.5342 33.0229 34.3808 33.1411C34.2447 33.246 34.1227 33.368 34.0178 33.5041C33.8996 33.6575 33.8111 33.8345 33.6341 34.1885L33.3333 34.79L33.0326 34.1884C32.8556 33.8345 32.7671 33.6575 32.6489 33.5041C32.544 33.368 32.422 33.246 32.2859 33.1411C32.1325 33.0229 31.9555 32.9344 31.6015 32.7574L31 32.4566L31.6015 32.1559C31.9555 31.9789 32.1325 31.8904 32.2859 31.7722C32.422 31.6672 32.544 31.5452 32.6489 31.4092C32.7671 31.2558 32.8556 31.0788 33.0326 30.7248L33.3333 30.1233Z" stroke="black" stroke-width="1.16667" stroke-linecap="square"/>
    <path d="M38.6666 22.79L39.3597 24.5922C39.5477 25.081 39.6418 25.3254 39.7879 25.531C39.9175 25.7132 40.0767 25.8724 40.2589 26.002C40.4645 26.1481 40.7089 26.2421 41.1977 26.4302L42.9999 27.1233L41.1977 27.8164C40.7089 28.0044 40.4645 28.0985 40.2589 28.2446C40.0767 28.3742 39.9175 28.5334 39.7879 28.7156C39.6418 28.9212 39.5477 29.1656 39.3597 29.6544L38.6666 31.4566L37.9735 29.6544C37.7855 29.1656 37.6914 28.9212 37.5453 28.7156C37.4157 28.5334 37.2565 28.3742 37.0743 28.2446C36.8687 28.0985 36.6243 28.0044 36.1355 27.8164L34.3333 27.1233L36.1355 26.4302C36.6243 26.2422 36.8687 26.1481 37.0743 26.002C37.2565 25.8724 37.4157 25.7132 37.5453 25.531C37.6914 25.3254 37.7855 25.081 37.9735 24.5922L38.6666 22.79Z" stroke="black" stroke-width="1.16667" stroke-linecap="square"/>
    <path d="M54.1521 34.13V23.3032H55.6218L61.3084 31.8036V23.3032H62.6821V34.13H61.2124L55.5258 25.6222V34.13H54.1521ZM69.9363 31.6042L71.3099 31.7741C71.0933 32.5766 70.692 33.1995 70.1061 33.6426C69.5202 34.0857 68.7719 34.3073 67.861 34.3073C66.7138 34.3073 65.803 33.9552 65.1285 33.2512C64.4589 32.5422 64.1241 31.5501 64.1241 30.2749C64.1241 28.9554 64.4638 27.9313 65.1432 27.2026C65.8227 26.474 66.704 26.1096 67.7872 26.1096C68.8359 26.1096 69.6926 26.4666 70.3572 27.1805C71.0219 27.8944 71.3542 28.8988 71.3542 30.1937C71.3542 30.2724 71.3518 30.3906 71.3468 30.5482H65.4977C65.547 31.4098 65.7907 32.0695 66.2289 32.5274C66.6671 32.9853 67.2136 33.2142 67.8684 33.2142C68.3558 33.2142 68.7719 33.0862 69.1165 32.8302C69.4611 32.5742 69.7344 32.1655 69.9363 31.6042ZM65.5716 29.4551H69.951C69.892 28.7954 69.7246 28.3006 69.4488 27.9707C69.0254 27.4587 68.4764 27.2026 67.8019 27.2026C67.1914 27.2026 66.6769 27.407 66.2584 27.8156C65.8448 28.2243 65.6159 28.7708 65.5716 29.4551ZM74.0739 34.13L71.6737 26.2869H73.0473L74.2954 30.814L74.7607 32.4979C74.7804 32.4142 74.9158 31.875 75.1669 30.8805L76.415 26.2869H77.7813L78.9555 30.8362L79.347 32.3354L79.7975 30.8214L81.1416 26.2869H82.434L79.9821 34.13H78.601L77.3529 29.433L77.0501 28.0963L75.4623 34.13H74.0739Z" fill="black"/>
  </g>
  <defs>
    <filter id="filter0_ddd_146_128" x="0.1" y="0.2" width="815.7" height="67.39" filterUnits="userSpaceOnUse" color-interpolation-filters="sRGB">
      <feFlood flood-opacity="0" result="BackgroundImageFix"/>
      <feColorMatrix in="SourceAlpha" type="matrix" values="0 0 0 0 0 0 0 0 0 0 0 0 0 0 0 0 0 0 127 0" result="hardAlpha"/>
      <feOffset dy="5.1"/>
      <feGaussianBlur stdDeviation="5.45"/>
      <feComposite in2="hardAlpha" operator="out"/>
      <feColorMatrix type="matrix" values="0 0 0 0 0 0 0 0 0 0 0 0 0 0 0 0 0 0 0.125 0"/>
      <feBlend mode="normal" in2="BackgroundImageFix" result="effect1_dropShadow_146_128"/>
      <feColorMatrix in="SourceAlpha" type="matrix" values="0 0 0 0 0 0 0 0 0 0 0 0 0 0 0 0 0 0 127 0" result="hardAlpha"/>
      <feOffset dy="0.9"/>
      <feGaussianBlur stdDeviation="0.95"/>
      <feComposite in2="hardAlpha" operator="out"/>
      <feColorMatrix type="matrix" values="0 0 0 0 0 0 0 0 0 0 0 0 0 0 0 0 0 0 0.114 0"/>
      <feBlend mode="normal" in2="effect1_dropShadow_146_128" result="effect2_dropShadow_146_128"/>
      <feColorMatrix in="SourceAlpha" type="matrix" values="0 0 0 0 0 0 0 0 0 0 0 0 0 0 0 0 0 0 127 0" result="hardAlpha"/>
      <feOffset dy="0.1"/>
      <feGaussianBlur stdDeviation="0.1"/>
      <feComposite in2="hardAlpha" operator="out"/>
      <feColorMatrix type="matrix" values="0 0 0 0 0 0 0 0 0 0 0 0 0 0 0 0 0 0 0.1 0"/>
      <feBlend mode="normal" in2="effect2_dropShadow_146_128" result="effect3_dropShadow_146_128"/>
      <feBlend mode="normal" in="SourceGraphic" in2="effect3_dropShadow_146_128" result="shape"/>
    </filter>
    <linearGradient id="paint0_linear_146_128" x1="528.812" y1="-182.159" x2="255.805" y2="218.429" gradientUnits="userSpaceOnUse">
      <stop offset="0.01" stop-color="white" stop-opacity="0.3"/>
      <stop offset="0.36" stop-color="white" stop-opacity="0.3"/>
      <stop offset="1" stop-color="white" stop-opacity="0"/>
    </linearGradient>
  </defs>
</svg>