<svg width="25" height="24" viewBox="0 0 25 24" fill="none" xmlns="http://www.w3.org/2000/svg">
<path d="M12.5312 1.41968L15.15 8.22868C15.2597 8.51378 15.3147 8.65638 15.3999 8.77628C15.4755 8.88258 15.5684 8.97548 15.6747 9.05108C15.7946 9.13628 15.9371 9.19118 16.2222 9.30088L23.0312 11.9197L16.2222 14.5385C15.9371 14.6482 15.7946 14.7031 15.6747 14.7883C15.5684 14.8639 15.4755 14.9568 15.3999 15.0631C15.3147 15.183 15.2597 15.3256 15.15 15.6107L12.5312 22.4197L9.91245 15.6107C9.80275 15.3256 9.74785 15.183 9.66265 15.0631C9.58705 14.9568 9.49415 14.8639 9.38785 14.7883C9.26795 14.7031 9.12535 14.6482 8.84025 14.5385L2.03125 11.9197L8.84025 9.30088C9.12535 9.19118 9.26795 9.13628 9.38785 9.05108C9.49415 8.97548 9.58705 8.88258 9.66265 8.77628C9.74785 8.65638 9.80275 8.51378 9.91245 8.22868L12.5312 1.41968Z" stroke="#2F2B23" stroke-width="2.1" stroke-linecap="square" stroke-linejoin="round"/>
</svg>
