<svg width="27" height="27" viewBox="0 0 27 27" fill="none" xmlns="http://www.w3.org/2000/svg">
<path d="M8.97168 8.9137V5.64704C8.97168 4.34025 8.97168 3.68685 9.226 3.18773C9.4497 2.74868 9.80667 2.39173 10.2457 2.16802C10.7449 1.9137 11.3983 1.9137 12.705 1.9137H21.5717C22.8785 1.9137 23.5319 1.9137 24.031 2.16802C24.4701 2.39173 24.827 2.74868 25.0507 3.18773C25.305 3.68685 25.305 4.34025 25.305 5.64704V14.5137C25.305 15.8205 25.305 16.4739 25.0507 16.973C24.827 17.412 24.4701 17.769 24.031 17.9927C23.5319 18.247 22.8785 18.247 21.5717 18.247H18.305M5.70501 25.247H14.5717C15.8785 25.247 16.5319 25.247 17.031 24.9927C17.4701 24.769 17.827 24.412 18.0507 23.973C18.305 23.4739 18.305 22.8205 18.305 21.5137V12.647C18.305 11.3402 18.305 10.6868 18.0507 10.1877C17.827 9.74873 17.4701 9.39173 17.031 9.16802C16.5319 8.9137 15.8785 8.9137 14.5717 8.9137H5.70501C4.39822 8.9137 3.74483 8.9137 3.2457 9.16802C2.80666 9.39173 2.4497 9.74873 2.226 10.1877C1.97168 10.6868 1.97168 11.3402 1.97168 12.647V21.5137C1.97168 22.8205 1.97168 23.4739 2.226 23.973C2.4497 24.412 2.80666 24.769 3.2457 24.9927C3.74483 25.247 4.39822 25.247 5.70501 25.247Z" stroke="#2F2B23" stroke-width="2.1" stroke-linecap="square"/>
</svg>
