<svg width="112" height="50" viewBox="0 0 112 50" fill="none" xmlns="http://www.w3.org/2000/svg">
<path fill-rule="evenodd" clip-rule="evenodd" d="M37.5221 26.405C36.3315 35.2067 28.8189 42.0249 19.7463 42.0249C19.2126 42.0249 18.72 41.9835 18.1863 41.9422L18.6789 40.3306C19.0484 40.372 19.3768 40.372 19.7463 40.372C27.8336 40.372 34.5663 34.4216 35.8389 26.653L37.5221 26.405Z" fill="white"/>
<path fill-rule="evenodd" clip-rule="evenodd" d="M19.7464 5.90918C29.6401 5.90918 37.6864 14.0084 37.6864 23.967C37.6864 24.5042 37.6453 25.0827 37.6043 25.6199L36.0443 24.9588C36.0443 24.6282 36.0853 24.2976 36.0853 23.967C36.0853 14.8761 28.778 7.52075 19.7464 7.52075C14.9843 7.52075 10.7148 9.58686 7.71796 12.8513L6.15796 12.1902C9.44217 8.30587 14.2864 5.90918 19.7464 5.90918Z" fill="white"/>
<path fill-rule="evenodd" clip-rule="evenodd" d="M21.9222 28.3886L37.5632 26.0332L5.87061 12.4795L6.65061 14.4216L32.3496 25.4134L20.6085 27.1902L16.8317 39.5456L17.7759 41.901L21.9222 28.3886Z" fill="#092540"/>
<path fill-rule="evenodd" clip-rule="evenodd" d="M20.3212 26.8596L30.9128 25.248L6.85596 14.9587L20.3212 26.8596Z" fill="white"/>
<path fill-rule="evenodd" clip-rule="evenodd" d="M6.85596 14.9587L16.5854 38.967L20.3212 26.8596L6.85596 14.9587Z" fill="#0057FF"/>
<path fill-rule="evenodd" clip-rule="evenodd" d="M48.1548 13.0579L39.698 34.8347H44.7064L46.3075 30.4132H55.298L56.9812 34.8347H62.0717L53.2043 13.0579H48.1548ZM47.7854 26.3223C48.3191 24.9174 48.8117 23.4711 49.3043 22.0661C49.6738 21.0331 50.2896 19.2562 50.5359 18.2231C50.618 17.8099 50.7001 17.3141 50.7412 16.9008C50.9464 18.4298 51.1517 19.1322 52.1369 21.9422C52.6706 23.3884 53.2043 24.876 53.738 26.3636H47.7854V26.3223Z" fill="white"/>
<path d="M68.1065 21.4463H63.7139V34.8347H68.1065V21.4463Z" fill="white"/>
<path fill-rule="evenodd" clip-rule="evenodd" d="M64.0832 18.1405C64.74 18.8017 65.5611 18.9257 65.9306 18.9257C67.3263 18.9257 68.5169 17.7686 68.5169 16.3224C68.5169 14.9174 67.3674 13.7191 65.9306 13.6777C64.5348 13.6777 63.3442 14.8348 63.3442 16.281C63.3442 16.9835 63.5906 17.686 64.0832 18.1405Z" fill="white"/>
<path fill-rule="evenodd" clip-rule="evenodd" d="M71.5549 13.0579V34.8347H76.6044C79.5602 34.8347 82.557 34.7521 85.0202 32.7686C86.5391 31.6116 88.9202 28.6364 88.9202 23.719C88.9202 22.562 88.8381 20.3306 87.3191 17.8512C86.7855 16.9422 85.8002 15.3719 83.4602 14.2562C81.0381 13.1405 78.4928 13.0992 75.9476 13.0992H71.5549V13.0579ZM76.276 16.8595C78.657 16.8182 80.5455 17.0248 81.9823 18.1405C84.2402 19.9174 84.3223 23.0579 84.3223 23.8017C84.3223 27.2727 82.8034 29.1322 81.5718 29.9587C80.0118 30.9917 78.0412 30.9917 76.276 30.9917V16.8595Z" fill="white"/>
<path fill-rule="evenodd" clip-rule="evenodd" d="M97.2948 13.0579L88.7969 34.8347H93.8053L95.4063 30.4132H104.397L106.08 34.8347H111.171L102.303 13.0579H97.2948ZM96.8842 26.3223C97.4179 24.9174 97.9106 23.4711 98.4032 22.0661C98.7727 21.0331 99.3885 19.2562 99.6348 18.2231C99.7169 17.8099 99.799 17.3141 99.84 16.9008C100.045 18.4298 100.251 19.1322 101.236 21.9422C101.77 23.3884 102.303 24.876 102.837 26.3636H96.8842V26.3223Z" fill="white"/>
<path fill-rule="evenodd" clip-rule="evenodd" d="M87.3191 37.7687C87.0318 37.6447 86.7034 37.5207 86.416 37.3968C85.3486 37.0249 84.3223 36.9835 83.9528 36.9835C83.6244 36.9835 82.6802 37.0249 81.777 37.3968C81.0381 37.686 80.3812 38.1819 79.8476 38.7604C79.396 39.2563 79.1497 39.6695 79.0265 39.9174C78.5339 40.8678 78.3286 42.0662 78.3286 43.0992C78.3286 45.7439 79.6423 47.2728 80.4223 47.9339C81.777 49.1323 83.4602 49.1736 84.0349 49.1736C85.636 49.1736 86.8265 48.5951 87.3191 48.3885V45.6612C87.1139 45.8265 86.9086 45.9505 86.7444 46.0744C86.1697 46.4877 85.4307 46.6943 85.1433 46.7769C84.7328 46.8596 84.4455 46.8596 84.2812 46.8596C82.1055 46.8596 81.3255 45.372 81.0791 44.6282C80.8739 43.967 80.8328 43.4298 80.8328 43.1819C80.8328 41.1984 81.9002 40.1654 82.5981 39.7521C83.2549 39.3802 83.9528 39.3389 84.2402 39.3389C85.8412 39.3389 86.9086 40.2893 87.3191 40.6612V37.7687ZM88.7149 36.5703V48.843H91.0139V45.248C91.0139 44.6695 91.0549 44.091 91.5886 43.7191C91.7118 43.6364 91.9581 43.4711 92.3686 43.4711C92.656 43.4711 92.7791 43.5538 92.9023 43.5951C93.5181 43.8844 93.477 44.5042 93.477 45.0827V48.843H95.817V44.1323C95.817 43.6778 95.817 43.2645 95.6528 42.8513C95.3244 41.9009 94.2981 41.4463 93.3539 41.4463C92.1633 41.4463 91.4655 42.1075 91.1781 42.4381C91.137 42.5207 91.096 42.6034 91.0139 42.6447V36.5703H88.7149ZM103.042 42.686C102.878 42.4794 102.714 42.2728 102.468 42.1075C101.729 41.529 100.949 41.529 100.62 41.529C99.7581 41.529 99.0191 41.7769 98.3623 42.3968C97.2949 43.4298 97.2539 44.8348 97.2539 45.3306C97.2539 46.7356 97.8697 48.2232 99.2244 48.843C99.7991 49.1323 100.374 49.1323 100.579 49.1323C101.523 49.1323 102.262 48.7604 102.55 48.5538C102.714 48.4298 102.878 48.3059 103.042 48.1406V48.843H105.341V41.6943H103.042V42.686ZM101.4 43.4711C102.468 43.4711 103.165 44.3389 103.165 45.4133C103.165 46.405 102.509 47.2728 101.482 47.2728C100.99 47.2728 100.661 47.1075 100.538 46.9835C100.21 46.7769 99.717 46.2811 99.717 45.2893C99.717 45.0414 99.717 44.5042 100.128 44.0083C100.579 43.5125 101.154 43.4711 101.4 43.4711ZM109.857 39.1323H107.517V41.6943H106.532V43.4298H107.517V48.843H109.816V43.4298H111.13V41.6943H109.857V39.1323Z" fill="#0057FF"/>
</svg>
