<svg width="112" height="50" viewBox="0 0 112 50" fill="none" xmlns="http://www.w3.org/2000/svg">
<path fill-rule="evenodd" clip-rule="evenodd" d="M37.5221 26.4049C36.3315 35.2066 28.8189 42.0247 19.7463 42.0247C19.2126 42.0247 18.72 41.9834 18.1863 41.9421L18.6789 40.3305C19.0484 40.3718 19.3768 40.3718 19.7463 40.3718C27.8336 40.3718 34.5663 34.4214 35.8389 26.6528L37.5221 26.4049Z" fill="#092540"/>
<path fill-rule="evenodd" clip-rule="evenodd" d="M19.7464 5.90906C29.6401 5.90906 37.6864 14.0082 37.6864 23.9669C37.6864 24.5041 37.6453 25.0826 37.6043 25.6198L36.0443 24.9586C36.0443 24.6281 36.0853 24.2975 36.0853 23.9669C36.0853 14.876 28.778 7.52063 19.7464 7.52063C14.9843 7.52063 10.7148 9.58674 7.71796 12.8512L6.15796 12.19C9.44217 8.30575 14.2864 5.90906 19.7464 5.90906Z" fill="#092540"/>
<path fill-rule="evenodd" clip-rule="evenodd" d="M21.9222 28.3883L37.5632 26.033L5.87061 12.4792L6.65061 14.4214L32.3496 25.4131L20.6085 27.19L16.8317 39.5454L17.7759 41.9007L21.9222 28.3883Z" fill="#092540"/>
<path fill-rule="evenodd" clip-rule="evenodd" d="M20.3212 26.8594L30.9128 25.2479L6.85596 14.9586L20.3212 26.8594Z" fill="white"/>
<path fill-rule="evenodd" clip-rule="evenodd" d="M6.85596 14.9586L16.5854 38.9669L20.3212 26.8594L6.85596 14.9586Z" fill="#0057FF"/>
<path fill-rule="evenodd" clip-rule="evenodd" d="M48.1548 13.0579L39.698 34.8347H44.7064L46.3075 30.4132H55.298L56.9812 34.8347H62.0717L53.2043 13.0579H48.1548ZM47.7854 26.3223C48.3191 24.9174 48.8117 23.4711 49.3043 22.0661C49.6738 21.0331 50.2896 19.2562 50.5359 18.2231C50.618 17.8099 50.7001 17.3141 50.7412 16.9008C50.9464 18.4298 51.1517 19.1322 52.1369 21.9422C52.6706 23.3884 53.2043 24.876 53.738 26.3636H47.7854V26.3223Z" fill="#092540"/>
<path d="M68.1065 21.4463H63.7139V34.8347H68.1065V21.4463Z" fill="#0057FF"/>
<path fill-rule="evenodd" clip-rule="evenodd" d="M64.0832 18.1405C64.74 18.8017 65.5611 18.9257 65.9306 18.9257C67.3263 18.9257 68.5169 17.7686 68.5169 16.3224C68.5169 14.9174 67.3674 13.7191 65.9306 13.6777C64.5348 13.6777 63.3442 14.8348 63.3442 16.281C63.3442 16.9835 63.5906 17.686 64.0832 18.1405Z" fill="#0057FF"/>
<path fill-rule="evenodd" clip-rule="evenodd" d="M71.5549 13.0579V34.8347H76.6044C79.5602 34.8347 82.557 34.7521 85.0202 32.7686C86.5391 31.6116 88.9202 28.6364 88.9202 23.719C88.9202 22.562 88.8381 20.3306 87.3191 17.8512C86.7855 16.9422 85.8002 15.3719 83.4602 14.2562C81.0381 13.1405 78.4928 13.0992 75.9476 13.0992H71.5549V13.0579ZM76.276 16.8595C78.657 16.8182 80.5455 17.0248 81.9823 18.1405C84.2402 19.9174 84.3223 23.0579 84.3223 23.8017C84.3223 27.2727 82.8034 29.1322 81.5718 29.9587C80.0118 30.9917 78.0412 30.9917 76.276 30.9917V16.8595Z" fill="#092540"/>
<path fill-rule="evenodd" clip-rule="evenodd" d="M97.2948 13.0579L88.7969 34.8347H93.8053L95.4063 30.4132H104.397L106.08 34.8347H111.171L102.303 13.0579H97.2948ZM96.8842 26.3223C97.4179 24.9174 97.9106 23.4711 98.4032 22.0661C98.7727 21.0331 99.3885 19.2562 99.6348 18.2231C99.7169 17.8099 99.799 17.3141 99.84 16.9008C100.045 18.4298 100.251 19.1322 101.236 21.9422C101.77 23.3884 102.303 24.876 102.837 26.3636H96.8842V26.3223Z" fill="#092540"/>
<path fill-rule="evenodd" clip-rule="evenodd" d="M87.3191 37.7685C87.0318 37.6446 86.7034 37.5206 86.416 37.3966C85.3486 37.0247 84.3223 36.9834 83.9528 36.9834C83.6244 36.9834 82.6802 37.0247 81.777 37.3966C81.0381 37.6859 80.3812 38.1818 79.8476 38.7603C79.396 39.2561 79.1497 39.6694 79.0265 39.9173C78.5339 40.8677 78.3286 42.0661 78.3286 43.0991C78.3286 45.7437 79.6423 47.2727 80.4223 47.9338C81.777 49.1322 83.4602 49.1735 84.0349 49.1735C85.636 49.1735 86.8265 48.595 87.3191 48.3884V45.6611C87.1139 45.8264 86.9086 45.9504 86.7444 46.0743C86.1697 46.4875 85.4307 46.6942 85.1433 46.7768C84.7328 46.8594 84.4455 46.8594 84.2812 46.8594C82.1055 46.8594 81.3255 45.3718 81.0791 44.628C80.8739 43.9669 80.8328 43.4297 80.8328 43.1818C80.8328 41.1983 81.9002 40.1652 82.5981 39.752C83.2549 39.3801 83.9528 39.3388 84.2402 39.3388C85.8412 39.3388 86.9086 40.2892 87.3191 40.6611V37.7685ZM88.7149 36.5702V48.8429H91.0139V45.2479C91.0139 44.6694 91.0549 44.0909 91.5886 43.719C91.7118 43.6363 91.9581 43.471 92.3686 43.471C92.656 43.471 92.7791 43.5537 92.9023 43.595C93.5181 43.8842 93.477 44.5041 93.477 45.0826V48.8429H95.817V44.1322C95.817 43.6776 95.817 43.2644 95.6528 42.8512C95.3244 41.9008 94.2981 41.4462 93.3539 41.4462C92.1633 41.4462 91.4655 42.1074 91.1781 42.438C91.137 42.5206 91.096 42.6032 91.0139 42.6446V36.5702H88.7149ZM103.042 42.6859C102.878 42.4793 102.714 42.2727 102.468 42.1074C101.729 41.5289 100.949 41.5289 100.62 41.5289C99.7581 41.5289 99.0191 41.7768 98.3623 42.3966C97.2949 43.4297 97.2539 44.8347 97.2539 45.3305C97.2539 46.7355 97.8697 48.2231 99.2244 48.8429C99.7991 49.1322 100.374 49.1322 100.579 49.1322C101.523 49.1322 102.262 48.7603 102.55 48.5537C102.714 48.4297 102.878 48.3057 103.042 48.1404V48.8429H105.341V41.6942H103.042V42.6859ZM101.4 43.471C102.468 43.471 103.165 44.3388 103.165 45.4132C103.165 46.4049 102.509 47.2727 101.482 47.2727C100.99 47.2727 100.661 47.1074 100.538 46.9834C100.21 46.7768 99.717 46.2809 99.717 45.2892C99.717 45.0413 99.717 44.5041 100.128 44.0082C100.579 43.5123 101.154 43.471 101.4 43.471ZM109.857 39.1322H107.517V41.6942H106.532V43.4297H107.517V48.8429H109.816V43.4297H111.13V41.6942H109.857V39.1322Z" fill="#0057FF"/>
</svg>
