<svg width="78" height="34" viewBox="0 0 78 34" fill="none" xmlns="http://www.w3.org/2000/svg">
<rect width="77.52" height="33.59" rx="16.795" fill="white"/>
<path opacity="0.12" d="M21.9999 10.1233L22.7857 12.1662C22.9737 12.6551 23.0677 12.8995 23.2139 13.1051C23.3435 13.2873 23.5026 13.4465 23.6849 13.576C23.8904 13.7222 24.1349 13.8162 24.6237 14.0042L26.6666 14.79L24.6237 15.5757C24.1349 15.7637 23.8904 15.8577 23.6849 16.0039C23.5026 16.1335 23.3435 16.2926 23.2139 16.4749C23.0677 16.6804 22.9737 16.9249 22.7857 17.4137L21.9999 19.4566L21.2142 17.4137C21.0262 16.9249 20.9322 16.6804 20.786 16.4749C20.6564 16.2926 20.4973 16.1335 20.315 16.0039C20.1095 15.8577 19.865 15.7637 19.3762 15.5757L17.3333 14.79L19.3762 14.0042C19.865 13.8162 20.1095 13.7222 20.315 13.576C20.4973 13.4465 20.6564 13.2873 20.786 13.1051C20.9322 12.8995 21.0262 12.6551 21.2142 12.1662L21.9999 10.1233Z" fill="black"/>
<path d="M16.3333 18.1233L16.6341 18.7248C16.8111 19.0788 16.8996 19.2558 17.0178 19.4092C17.1227 19.5452 17.2447 19.6672 17.3808 19.7722C17.5342 19.8904 17.7112 19.9789 18.0652 20.1559L18.6667 20.4566L18.0652 20.7574C17.7112 20.9344 17.5342 21.0229 17.3808 21.1411C17.2447 21.246 17.1227 21.368 17.0178 21.5041C16.8996 21.6575 16.8111 21.8345 16.6341 22.1885L16.3333 22.79L16.0326 22.1884C15.8556 21.8345 15.7671 21.6575 15.6489 21.5041C15.544 21.368 15.422 21.246 15.2859 21.1411C15.1325 21.0229 14.9555 20.9344 14.6015 20.7574L14 20.4566L14.6015 20.1559C14.9555 19.9789 15.1325 19.8904 15.2859 19.7722C15.422 19.6672 15.544 19.5452 15.6489 19.4092C15.7671 19.2558 15.8556 19.0788 16.0326 18.7248L16.3333 18.1233Z" stroke="black" stroke-width="1.16667" stroke-linecap="square"/>
<path d="M21.6666 10.79L22.3597 12.5922C22.5477 13.081 22.6418 13.3254 22.7879 13.531C22.9175 13.7132 23.0767 13.8724 23.2589 14.002C23.4645 14.1481 23.7089 14.2421 24.1977 14.4302L25.9999 15.1233L24.1977 15.8164C23.7089 16.0044 23.4645 16.0985 23.2589 16.2446C23.0767 16.3742 22.9175 16.5334 22.7879 16.7156C22.6418 16.9212 22.5477 17.1656 22.3597 17.6544L21.6666 19.4566L20.9735 17.6544C20.7855 17.1656 20.6914 16.9212 20.5453 16.7156C20.4157 16.5334 20.2565 16.3742 20.0743 16.2446C19.8687 16.0985 19.6243 16.0044 19.1355 15.8164L17.3333 15.1233L19.1355 14.4302C19.6243 14.2422 19.8687 14.1481 20.0743 14.002C20.2565 13.8724 20.4157 13.7132 20.5453 13.531C20.6914 13.3254 20.7855 13.081 20.9735 12.5922L21.6666 10.79Z" stroke="black" stroke-width="1.16667" stroke-linecap="square"/>
<path d="M37.1521 22.13V11.3032H38.6218L44.3084 19.8036V11.3032H45.6821V22.13H44.2124L38.5258 13.6222V22.13H37.1521ZM52.9363 19.6042L54.3099 19.7741C54.0933 20.5766 53.692 21.1995 53.1061 21.6426C52.5202 22.0857 51.7719 22.3073 50.861 22.3073C49.7138 22.3073 48.803 21.9552 48.1285 21.2512C47.4589 20.5422 47.1241 19.5501 47.1241 18.2749C47.1241 16.9554 47.4638 15.9313 48.1432 15.2026C48.8227 14.474 49.704 14.1096 50.7872 14.1096C51.8359 14.1096 52.6926 14.4666 53.3572 15.1805C54.0219 15.8944 54.3542 16.8988 54.3542 18.1937C54.3542 18.2724 54.3518 18.3906 54.3468 18.5482H48.4977C48.547 19.4098 48.7907 20.0695 49.2289 20.5274C49.6671 20.9853 50.2136 21.2142 50.8684 21.2142C51.3558 21.2142 51.7719 21.0862 52.1165 20.8302C52.4611 20.5742 52.7344 20.1655 52.9363 19.6042ZM48.5716 17.4551H52.951C52.892 16.7954 52.7246 16.3006 52.4488 15.9707C52.0254 15.4587 51.4764 15.2026 50.8019 15.2026C50.1914 15.2026 49.6769 15.407 49.2584 15.8156C48.8448 16.2243 48.6159 16.7708 48.5716 17.4551ZM57.0739 22.13L54.6737 14.2869H56.0473L57.2954 18.814L57.7607 20.4979C57.7804 20.4142 57.9158 19.875 58.1669 18.8805L59.415 14.2869H60.7813L61.9555 18.8362L62.347 20.3354L62.7975 18.8214L64.1416 14.2869H65.434L62.9821 22.13H61.601L60.3529 17.433L60.0501 16.0963L58.4623 22.13H57.0739Z" fill="black"/>
</svg>
