<svg width="17" height="17" viewBox="0 0 17 17" fill="none" xmlns="http://www.w3.org/2000/svg">
<g transform="translate(0, -4)">
<path opacity="0.12" d="M10.9999 7.12329L11.7857 9.16624C11.9737 9.65506 12.0677 9.89946 12.2139 10.105C12.3435 10.2873 12.5026 10.4465 12.6849 10.576C12.8904 10.7222 13.1349 10.8162 13.6237 11.0042L15.6666 11.79L13.6237 12.5757C13.1349 12.7637 12.8904 12.8577 12.6849 13.0039C12.5026 13.1335 12.3435 13.2926 12.2139 13.4749C12.0677 13.6804 11.9737 13.9249 11.7857 14.4137L10.9999 16.4566L10.2142 14.4137C10.0262 13.9249 9.93219 13.6804 9.78599 13.4749C9.65639 13.2926 9.49725 13.1335 9.31499 13.0039C9.10945 12.8577 8.86499 12.7637 8.37619 12.5757L6.33325 11.79L8.37619 11.0042C8.86499 10.8162 9.10945 10.7222 9.31499 10.576C9.49725 10.4465 9.65639 10.2873 9.78599 10.105C9.93219 9.89946 10.0262 9.65506 10.2142 9.16624L10.9999 7.12329Z" fill="black"/>
<path d="M4.33333 14.1233L4.63409 14.7248C4.81107 15.0788 4.89957 15.2558 5.0178 15.4092C5.12271 15.5452 5.24471 15.6672 5.38081 15.7722C5.53419 15.8904 5.71118 15.9789 6.06517 16.1559L6.66667 16.4566L6.06517 16.7574C5.71118 16.9344 5.53419 17.0229 5.38081 17.1411C5.24471 17.246 5.12271 17.368 5.0178 17.5041C4.89957 17.6575 4.81107 17.8345 4.63408 18.1885L4.33333 18.79L4.03258 18.1884C3.85559 17.8345 3.76709 17.6575 3.64887 17.5041C3.54396 17.368 3.42195 17.246 3.28585 17.1411C3.13248 17.0229 2.95549 16.9344 2.6015 16.7574L2 16.4566L2.6015 16.1559C2.95549 15.9789 3.13248 15.8904 3.28585 15.7722C3.42195 15.6672 3.54396 15.5452 3.64887 15.4092C3.76709 15.2558 3.85559 15.0788 4.03259 14.7248L4.33333 14.1233Z" stroke="black" stroke-width="1.16667" stroke-linecap="square"/>
<path d="M9.66659 6.78998L10.3597 8.59218C10.5477 9.081 10.6418 9.32541 10.7879 9.531C10.9175 9.7132 11.0767 9.8724 11.2589 10.002C11.4645 10.1481 11.7089 10.2421 12.1977 10.4302L13.9999 11.1233L12.1977 11.8164C11.7089 12.0044 11.4645 12.0985 11.2589 12.2446C11.0767 12.3742 10.9175 12.5334 10.7879 12.7156C10.6418 12.9212 10.5477 13.1656 10.3597 13.6544L9.66659 15.4566L8.97345 13.6544C8.78545 13.1656 8.69139 12.9212 8.54525 12.7156C8.41565 12.5334 8.25645 12.3742 8.07425 12.2446C7.86872 12.0985 7.62425 12.0044 7.13545 11.8164L5.33325 11.1233L7.13545 10.4302C7.62425 10.2422 7.86872 10.1481 8.07425 10.002C8.25645 9.8724 8.41565 9.7132 8.54525 9.531C8.69139 9.32541 8.78545 9.081 8.97345 8.59218L9.66659 6.78998Z" stroke="black" stroke-width="1.16667" stroke-linecap="square"/>
</g>
</svg>
